<svg xmlns="http://www.w3.org/2000/svg" viewBox="0 0 880.94 660.47"><g id="Capa_2" data-name="Capa 2"><g id="Capa_1-2" data-name="Capa 1"><path d="M301.93,506.24c-3.1,5.54-5.85,10.06-8.21,14.77-4.45,8.91-11.45,15.47-19.09,21.5l-3.29,2.63a30.67,30.67,0,0,0-11,16.42,100.66,100.66,0,0,1-5.13,13.5,37.73,37.73,0,0,0-3.63,15.33q0,7.73-.12,15.46c-.06,2.48-.4,5-.51,7.45-.38,8.54,1.55,16.44,7.23,23,1.22,1.41,3.37,2.16,5.23,2.86,7.77,3,9.27,5.53,7.82,13.87,0,.15-.11.29-.07.19a46.76,46.76,0,0,1-4.8,4.62c-1.46,1.06-3.26,2.19-5,2.27-6.06.3-12.24,1-18.11-1.07a59.22,59.22,0,0,1-9.6-4.7,5.94,5.94,0,0,1-2.89-6.86c.82-3.11.06-5.84-.63-8.7-.29-1.21-.49-2.45-.89-3.62a13.25,13.25,0,0,1,1-10.87,29.55,29.55,0,0,0,3-14c0-13.74,0-27.49-.12-41.23,0-4.51-.5-9-.92-13.51-.37-4.11,1.3-7.22,4.12-10a62.87,62.87,0,0,0,7-7.54,66.56,66.56,0,0,0,11.94-27.69,55.59,55.59,0,0,0,.4-10.73,146.51,146.51,0,0,1,9.59-55.76c1.51-3.9,3.85-7.48,5.81-11.2.55-1,1.14-2.05,2-3.57-5.54.61-9,3.26-11.07,7.53a53.74,53.74,0,0,0-3.77,10c-2.81,11.12-10.85,16.66-20.89,20.13-1.34.46-2.94.18-4.1.23-1.34-1.89-.68-3.14-.07-4.43,1.46-3.09,3.06-6.14,4.26-9.33,3-7.87,7.67-14.25,15-18.55a18.87,18.87,0,0,0,6.32-6.12,27.72,27.72,0,0,1,9.15-8.58c2.13-1.3,4.23-2.64,6.35-4a26.36,26.36,0,0,0,8.32-8.64,99,99,0,0,1,10.76-14.11c6-6.52,11.79-13.39,19.21-18.45,4.89-3.33,9.94-6.43,15-9.43a40.4,40.4,0,0,0,9.91-8.43c5.76-6.58,11.63-13.09,17.88-19.19,8.4-8.2,18.54-13.66,29.66-17.32,3.56-1.17,7.08-2.46,10.66-3.52,11.54-3.43,23.06-2.91,34.59.18,10.37,2.77,17.93,9.33,23.81,17.87a17.12,17.12,0,0,0,11.66,7.75c1.68.3,3.37.64,5,1.07,12.37,3.24,24.68,6.55,35.83,13.21a75,75,0,0,1,22.2,20.5c4.14,5.65,9.72,8.93,16.58,10.54,5.79,1.35,10.82,0,15.63-2.87a30.54,30.54,0,0,0,10.84-11.44,59.72,59.72,0,0,0,8.31-29.36c.14-7.48-.06-15.07,1.19-22.39,1-5.8-.09-10-4.45-13.61a8,8,0,0,1-1.84-2.69q-2.08-4.33,2.54-5.7a21.94,21.94,0,0,1,5-1c5.88-.3,11.22-2.5,16.66-4.42,5.73-2,11.44-4.1,17.23-6,4.56-1.46,9.13-2,13.51.9a6.57,6.57,0,0,0,3.56.8c3.58-.05,7.15-.43,10.73-.45,7.67,0,15.26.66,22.41,3.7,1.23.52,2.85,1.53,3.13,2.61.72,2.77,3,3.79,4.79,5.44,4.68,4.33,5.65,9.31,3,14.75a4.49,4.49,0,0,0,.16.89c1.78,4.44.59,6.54-4.22,6.47s-9.34.56-13.36,3.34a17.52,17.52,0,0,0-4.27,3.58,23.89,23.89,0,0,1-12.89,8.85c-3.58,1.07-6,2.95-7.17,6.61a10.92,10.92,0,0,1-2.71,4.33c-2.54,2.48-3.22,5.58-3.64,8.85a177.37,177.37,0,0,1-11.8,45.07c-4.59,11.17-10.56,21.6-18.71,30.6-10.12,11.18-22.89,18.3-37.11,22.66a253.18,253.18,0,0,1-25,5.82c-4.6.91-8.16,2.75-10.29,7.07a26.77,26.77,0,0,1-9.72,11.08,20.79,20.79,0,0,0-8.19,10c-3.55,9.15-7.3,18.24-10.35,27.56-7.17,21.91-5.74,13.77-5.85,36.56,0,5.41-1,10.82-1.51,16.23-.4,4-.87,8-1.24,12.08a104.92,104.92,0,0,0-.84,11.18c.06,5.6.48,11.2.93,16.79a18.67,18.67,0,0,0,1.38,4.42c1.34,3.8,3,7.52,4,11.42s3.15,6.18,6.59,7.88a78.49,78.49,0,0,1,10.09,5.84,14,14,0,0,1,6,11.18c.21,3.5-.77,5-4.17,5.62a37.43,37.43,0,0,1-7.88.85c-6.54-.12-13.07-.51-19.61-.8a12.63,12.63,0,0,1-1.85-.22c-7.13-1.47-9.47-4.13-10-11.4a49.12,49.12,0,0,1-.11-5.15,11.74,11.74,0,0,0-1.71-6.69,15.64,15.64,0,0,1-2.15-9c.45-12,.71-24,1.25-36a32.73,32.73,0,0,0-3.61-17.6c-3.22-6-3.64-12.46-2.82-19.13.43-3.52.45-7.09.71-11.53-1.57,1-2.66,1.37-3.14,2.11a82.51,82.51,0,0,0-6.24,10.38,65,65,0,0,1-6.7,11.2,43.32,43.32,0,0,0-4.62,8.07c-4.66,10.72-9.05,21.57-13.74,32.28-1.75,4-2,8.15-1.92,12.36,0,2.64,1.45,4.1,4,5.12a84.5,84.5,0,0,1,12.15,5.88c3.5,2.11,4.62,5.64,4,9.75a4.89,4.89,0,0,1-4.17,4.42,35.11,35.11,0,0,1-7.39,1c-8.57-.16-17.13-.58-25.7-.86a4.81,4.81,0,0,1-4.6-3.36,15.59,15.59,0,0,1-.35-11.4,10.37,10.37,0,0,0,.46-6.81c-.95-3.23-.15-6.47,1.13-9.57,2.74-6.63,5.46-13.27,8.11-19.93,3.7-9.27,7.27-18.59,11-27.84a53.92,53.92,0,0,0,3.76-17.73,22.33,22.33,0,0,1,5.59-14.52,24.81,24.81,0,0,0,5.79-11.56c1.35-6.07,2.9-12.1,4.3-18.16.46-2,.73-4-1-6.25-1.67-.05-3.66-.23-5.65-.16-8.1.26-16.21.89-24.31.83a89.53,89.53,0,0,1-35.39-7.62c-6.14-2.68-12.25-5.46-18.38-8.17-3.54-1.56-3.89-1.61-7.48-1.46a35.21,35.21,0,0,0-1.34,5.67c-.54,7.88-3.91,14.75-7.86,21.29-4.59,7.61-9.48,15.06-14.57,22.35-4.54,6.51-7.06,13.63-6.86,21.45.38,14.93.47,30,5.57,44.29,1.29,3.64,3.33,7,5.07,10.48s3.88,6.81,5.18,10.45,3.73,5.51,7.29,6.45a97.09,97.09,0,0,1,9.35,2.87c5.67,2.13,7.36,7.31,8.87,12.44.57,1.92-.46,3.45-2.94,4a107.8,107.8,0,0,1-14.64,2.74,132.62,132.62,0,0,1-14.52.1,16.62,16.62,0,0,1-4.12-.7c-5.12-1.38-6.54-3.28-6.64-8.66a21.93,21.93,0,0,1,0-2.81c.58-4.78-.88-8.66-4-12.44-1.87-2.25-2.69-5.58-3.38-8.57-3.08-13.16-8.37-25.42-14.67-37.3a53.2,53.2,0,0,0-4.5-7.66c-3.59-4.69-3.52-9.91-1.22-14.6,2.62-5.37,3.28-11.05,4.15-16.66,1.19-7.68,1.58-15.48,2.27-23.24C302,510.22,301.93,508.72,301.93,506.24Z"/><path d="M499.26.41C506.7-1.5,565.49,4,574,7.55a31.87,31.87,0,0,1-1.68,3.11c-6.12,9.05-8.74,19.16-9.41,29.94-.39,6.37-1.13,12.71-1.67,19.07-.38,4.5-.79,9-1,13.51-.42,7.94-.68,15.89-1.09,23.83-.53,10.11-1.3,20.21-1.7,30.33-.42,10.77-.35,21.53,3.65,31.82a19.61,19.61,0,0,1,.59,2.53c-.76.24-1.47.71-2.1.63-6-.75-12-1.71-18-2.39-7.11-.82-14.24-1.47-21.37-2.11-5-.44-9.95-.69-14.91-1.13a31,31,0,0,1-4.32-1c.7-1.9,1.23-3.49,1.87-5a64,64,0,0,0,5.32-21.2c.26-4.19.56-8.38.86-12.57q.85-11.64,1.73-23.29c0-.16,0-.32,0-.47q.51-11.2,1-22.42c0-.72,0-1.44,0-2.13-14.66,18.18-29.6,35.9-44.37,53.69-3.48-2.37-38-43.57-46.3-55.17.65,8.17,1.25,15.77,1.86,23.36.36,4.5.77,9,1.09,13.5.42,5.91.68,11.82,1.16,17.72.85,10.46,2.39,20.75,7.64,30.1a35.75,35.75,0,0,1,1.44,3.38,5.38,5.38,0,0,1-1.52.71q-5.58.51-11.17.91c-9.63.71-19.26,1.37-28.88,2.1-1.39.1-2.75.63-4.14.7-2,.09-4,.72-6-.68,1-3.89,2.37-7.73,3-11.68.86-5.82,2.08-11.67,1-17.62a11.6,11.6,0,0,1-.12-1.87c-.4-9.19-.63-18.39-1.24-27.57-.68-10.4-1.67-20.78-2.58-31.17-.64-7.44-1.3-14.88-2.06-22.31-1.24-12-3-23.82-8.89-34.6-.9-1.64-1.81-3.27-2.67-4.93-.13-.24,0-.6,0-.91C377.41,3,436-1.52,443.56.5c-.23,1.48-.36,3-.73,4.48-2,7.92.35,14.79,5.16,21,6.88,8.89,13.87,17.69,20.84,26.51.75,1,1.68,1.78,2.74,2.89A28,28,0,0,0,474,53q10.14-12.87,20.23-25.79c5.53-7,7.8-14.81,5.36-23.65A22.83,22.83,0,0,1,499.1.82C499.08.69,499.2.55,499.26.41Z"/><path d="M301.51,133.61,260.84,145.1c-5.25,26.8-18.07,49-40.44,65.09-9.31,6.7-20.38,11.72-26,12,1.61-19.09,1.27-37.94-8.08-55.69,2.5-1.24,4.57-2.29,6.65-3.3a51.32,51.32,0,0,0,23.76-22.42,83.81,83.81,0,0,0,6.74-18.39q6.15-23.49,12.2-47c.11-.43.13-.88.3-2A347.42,347.42,0,0,0,182,103.39c-.37-.71-.77-1.37-1.07-2.07q-8-18.7-16-37.42a8.4,8.4,0,0,1-.25-1.73c1.47-.33,2.91-.68,4.36-1,10.76-2.24,20.75-6.67,30.82-10.83,33.32-13.76,67.25-25.65,102.34-34,10.58-2.53,21.26-4.66,31.91-6.92a19.83,19.83,0,0,1,3.59,0c-.39,3-.67,5.56-1.06,8.11a68.92,68.92,0,0,0,0,20.48c1.32,9.07,2.41,18.19,4,27.22,2.48,14.09,5.1,28.16,8,42.16,2.49,11.88,5.41,23.67,8.34,35.44a56,56,0,0,0,7,16.25,26.93,26.93,0,0,1,1.18,2.57c-2,.57-3.66,1.21-5.4,1.53a470,470,0,0,0-54,12.73,25.27,25.27,0,0,1-2.65.45c.15-2,.33-3.61.38-5.25.32-10.14.17-20.25-1.61-30.29A65.18,65.18,0,0,1,301.51,133.61ZM267.8,113.22c10-2.69,19.67-4.76,29.06-7.79-2.93-15.55-5.79-30.71-8.64-45.86C278.34,76.25,272.12,94,267.8,113.22Z"/><path d="M771,66.94c-13,11.11-25.3,21.59-37.67,31.87-.72-.76-1-1-1.13-1.21-6.32-17.23-19.38-27.53-35.65-34.35a60.78,60.78,0,0,0-27.39-4.85C660,59,651.83,61.84,645,68.19c-1,1-2.08,1.87-3.58,3.22,6,3,12.22,4.77,18.19,7.14s11.87,4.78,17.94,6.73,12.55,3.44,18.84,5.13c-.19,3.24-12.41,35.82-15.43,41-.49-.1-1.19,0-1.62-.34-6.43-4.61-13.78-7.23-21.13-9.86-9.4-3.35-18.76-6.8-28.14-10.18-1-.36-2-.57-3.23-.9-2.29,8.81.28,16.54,4.09,24,3.51,6.86,9.09,11.84,15.53,15.88a66.14,66.14,0,0,0,27.59,9.45c6.88.86,13.4.42,19.7-2.13,9.9-4,13-10.76,10-20.87,13.79-10.1,32.36-2.05,36.31,14.25,2.07,8.53-.37,16-5.26,22.91-6.3,8.83-15.17,14.27-25.11,18-8.38,3.17-17.18,4.31-26.09,4.72-29,1.32-54.27-8.75-76.59-26.36-14.37-11.33-24.24-26.32-27.38-44.53-4.75-27.57.48-53.26,18.66-75.15,12.42-14.95,28.44-24.66,47.84-28.1a98.63,98.63,0,0,1,26-1.05,137.87,137.87,0,0,1,31,6.29c15.33,5,28.84,13.28,41.31,23.39,6,4.92,12.12,9.86,19.37,13Z"/><path d="M113.68,79.59c8.9,17.17,16.82,34.73,25.69,52.49a19.68,19.68,0,0,1-3.78,0c-6.05-1.4-12-3.15-18.14-4.32-15.77-3-30.34.35-43.72,9C64.18,143,56.75,151.1,53,162c-6.44,18.58-3.78,35.61,9.55,50.52,11,12.28,24.84,15.78,40.71,13.43,7.7-1.15,14.82-3.56,21.1-8.24a27.17,27.17,0,0,0,10.83-16.37c1.58-7-2.87-15.36-8.65-17.4-1.15-.41-2.24-1-3.4-1.5-.35-2.15.68-3.77,1.66-5.29,7-10.9,22.82-16.83,35-11.41,8.39,3.75,13.28,10.57,16,19.14,3.35,10.68,1.28,21-2.58,31-4.84,12.64-13.55,22.3-24.13,30.39a104.5,104.5,0,0,1-48.58,20.46c-19,2.9-37.25.7-54.72-7.25a70.18,70.18,0,0,1-22.78-16.92C15.74,234.69,9.48,226.13,5.73,216A102.69,102.69,0,0,1,.61,194.75c-2.11-14.64,1.54-28.21,6.75-41.47a87.24,87.24,0,0,1,35.21-42.56c9.4-6,19.72-10,30.28-13.46q12.89-4.2,25.68-8.69a38.64,38.64,0,0,0,13.53-8.17A8.06,8.06,0,0,1,113.68,79.59Z"/><path d="M804.59,76c4.9,1.49,52.65,30.15,58.55,35.11a17.15,17.15,0,0,1-2.63,1.67C847.53,118,837.8,127,830.9,139c-8.89,15.42-17.47,31-26.19,46.52-3.13,5.56-6.29,11.11-9.52,16.81l34.51,21.93a26.87,26.87,0,0,0,12.79,4.11A13.76,13.76,0,0,0,856.42,220c.71-1.55,1.15-3.21,1.79-5a10,10,0,0,1,2.67-.3c10.49,1.77,18.85,11.4,19.91,22,1.71,17.05-11.42,29.48-26.49,31.87-10.41,1.66-20.08-1.06-29.62-4.62-10.59-4-20-10.11-29.65-15.93q-33-20-65.94-40.27c-1.15-.7-2.18-1.59-3.59-2.62,2.64-2,4.93-3.61,7-5.43a88,88,0,0,0,18.58-22.17c11-18.86,21.84-37.85,32.72-56.8,4-6.91,7.86-13.85,11.79-20.77a73.07,73.07,0,0,0,7.64-20A38.24,38.24,0,0,1,804.59,76Z"/></g></g></svg>