<svg xmlns="http://www.w3.org/2000/svg" viewBox="0 0 1596.28 660.47"><g id="Capa_2" data-name="Capa 2"><g id="Capa_1-2" data-name="Capa 1"><path d="M311.51,494.85c-.53,4.57-.95,8.52-1.46,12.46-1.81,14.11-6.89,19.43-21,22.08-15.39,2.88-26.58-2.82-31.44-17.76-3.54-10.87-5.41-22.32-7.47-33.61-.68-3.69-1.72-5.87-5.27-7.53-50-23.33-93.66-55-129-97.72-3.72-4.5-7.33-9.1-10.72-13.84-11.77-16.43-9.1-37.61,6.65-52C126.43,293.5,144,285,162.11,277.62a424.5,424.5,0,0,1,88-25c3.16-.55,3.29-2.36,3.5-4.83,1.81-21.42,3.17-42.91,5.83-64.24,1.52-12.26,4.93-24.32,8-36.34,1.23-4.78,3-10.42,8.81-11.4s8.62,4.4,12,8c12.18,12.87,16.23,29,17.88,45.9,1.7,17.42,2.75,34.91,4.1,52.37.1,1.34.27,2.69.42,4.15,9.35,0,18.39-.09,27.43,0,24.53.29,48.59,4.48,72.67,8.67,19.46,3.39,38.41,8.31,56.08,17.33,10.6,5.41,20.33,12.07,28.19,21.2,18.82,21.88,15.6,52.36-7.43,69.82-17.72,13.43-37.54,14.09-56.23,1.87-4.18-2.73-4.54-5.32-.37-8.15s9.16-4.92,13.69-7.48c3.85-2.18,8-4.13,11.29-7,6.47-5.49,6.34-11.62-.68-16.39a73,73,0,0,0-17.17-8.65,240.39,240.39,0,0,0-59-11.88c-22.51-1.83-45.08-2.76-67.62-4.06-1.06-.06-2.11,0-3.8,0,0,2.13,0,3.9,0,5.68q1.17,66.87,2.35,133.74c.12,6.81.2,6.88,6.86,8,31.62,5.26,63.38,8.61,95.45,5.55,41-3.91,80.75-12.51,117.26-32.42,22.56-12.29,41.61-28.57,52.83-52.33,13.29-28.15,12.26-56.93,2-85.64-11.28-31.55-31.66-57-55.2-80.16-37.6-37-81.29-65.43-127.86-89.61C344,84.51,283.53,63.07,219.85,51.13c-34.66-6.5-69.6-10.54-104.93-9.72-25.4.58-50.63,2.85-75.1,10.27-3.09.93-5.94,2.64-8.9,4l.17,1.52c1.6.6,3.17,1.31,4.8,1.79,7,2.09,14.22,3.85,21.14,6.31,2.07.74,5,3.65,4.79,5.11a8.72,8.72,0,0,1-5,5.76c-14.16,4.62-28.58,5.77-43,1C.26,72.73-3.69,63,3.61,50.64,8.27,42.73,13.85,35.33,19.36,28c4-5.37,9.76-8,16.3-9.61,10.57-2.58,20.89-6.22,31.48-8.68,43.7-10.14,87.92-11.8,132.43-7.32C273.44,9.77,343.88,30,411.3,60.63c61,27.75,116.82,63.62,164.61,111,30.84,30.55,55.86,65.09,71.3,106.31,22.22,59.28,1,132.35-50.11,172-27.49,21.35-58.47,35.16-91.85,44.32-40.75,11.18-82.2,15.44-124.17,11.7-21.65-1.92-43.05-6.59-64.57-10C315,495.69,313.57,495.3,311.51,494.85ZM252.27,303.71a19.43,19.43,0,0,0-2.59-.17c-34.16,2.82-68.2,6.48-101.22,16.2a163.62,163.62,0,0,0-23.67,8.81c-9.88,4.65-11.37,14.11-4.25,22.44.7.81,1.46,1.58,2.2,2.36,31.54,33,69.3,56.55,111.33,73.65,4.33,1.77,8.75,3.29,13.52,5.07C250.87,388.84,252.82,346.4,252.27,303.71Z"/><path d="M1420.6,378.3c3.14-4.68,6.22-9.39,9.42-14,21.22-30.65,43.63-60.32,71.78-85.09,11.11-9.77,23-18.4,37.31-23.24,19.31-6.55,36.36-.25,46.41,17.44,8.79,15.47,10.74,32.46,10.76,49.86,0,36.56-14.23,67.39-37.78,94.54-15.37,17.72-32.65,33-54.51,42.29-16.22,6.9-33.06,9.31-50.49,5.88-3.39-.67-5-.08-6.49,3.43-22.23,54.24-38.1,110.21-46.27,168.3-.67,4.71-1,9.53-2.25,14.08-2.29,8.21-7.9,10.73-15.59,7-15.2-7.33-24.42-20.19-31.15-35.08-7.36-16.29-7.26-33.47-5.18-50.71,5-41.43,19-80.23,35-118.41,3.38-8.06,7.16-16,10.54-24a6.59,6.59,0,0,0,0-5c-12.25-21.64-14.26-44.86-10.49-68.82,4.66-29.63,18.1-55.56,34.95-79.89a232.79,232.79,0,0,1,35.37-40,30.78,30.78,0,0,1,7.53-5.2c4.71-2.18,7.78-.65,8,4.53a86.91,86.91,0,0,1-1.17,18.29c-2.07,12.23-9.31,22.27-14.92,33-8.2,15.62-17.27,30.84-24.4,46.93-4.16,9.37-5.56,20-7.59,30.23-.86,4.34-.14,9-.14,13.5Zm52.76,31.79c8.06-2,14.84-3.21,21.34-5.32,37.14-12.08,61.29-36.95,71.24-74.73,2.08-7.91,1.61-16.78.81-25.07-.64-6.74-6.37-8.67-12-5a41.71,41.71,0,0,0-7.39,6.19c-24.56,26.19-46.32,54.5-64.21,85.69C1480,397.4,1477.12,403.11,1473.36,410.09Z"/><path d="M896.94,238.33c23,.62,46.13.77,68.59,6.91a59.93,59.93,0,0,1,12.3,5c5,2.66,6.48,6.2,4.41,11.53-4.48,11.51-8.88,19.14-26.12,20.54-34,2.77-67.94,6.1-101.85,9.72-14.63,1.56-29.14,4.33-43.68,6.75a28.1,28.1,0,0,0-9.57,3.1,9.21,9.21,0,0,0-3.81,6c-.14,1.05,2.91,3.43,4.75,3.72,13.34,2.08,26.71,4.24,40.15,5.49,20.78,1.94,41.66,2.82,62.44,4.83a114.28,114.28,0,0,1,40.14,11.25c15.14,7.54,24.8,19.31,27.95,36.09s2.87,33.67-1.88,50.19c-3.24,11.27-10,20-20.74,25.2-39.13,18.91-79.77,26.24-122.51,14.72A111.78,111.78,0,0,1,772.32,425c-20-22.48-10.3-54.29,18.92-63.46,16.32-5.13,33.16-5.27,49.8-3.21a396.7,396.7,0,0,1,46.52,8.92c7,1.71,13.56,5.67,19.74,9.54,6.68,4.18,6.56,9.91.48,15-8.4,7.06-18.63,9.14-29.11,10.19a87.71,87.71,0,0,1-52.75-11.12c-8.23-4.59-17.19-7.52-26.91-6.46-6.26.68-13.76,8.22-13.25,14.43.27,3.23,2.42,7.64,5,9.07,6.22,3.37,13.06,6.67,20,7.54,35.65,4.49,70.56,1.23,103.84-13.18a66.38,66.38,0,0,0,16.92-10.94c9.73-8.51,8.17-19.85-3.7-25-8.65-3.76-17.94-6.28-27.15-8.44-28.91-6.77-58.48-6.94-87.92-8.6a288.75,288.75,0,0,1-40.09-5.49c-15.4-3.09-20.45-10.18-20.84-25.8-.28-11.09,2.07-21.74,5.84-32,2.89-7.88,9.13-13.38,15.94-18.05,15.18-10.42,32.33-16.28,49.94-20.69C847.59,241.29,872,237.35,896.94,238.33Z"/><path d="M1273.17,323.61c9.48,0,18.52-.13,27.56,0,11,.19,22.11.59,33.15,1,4.77.17,8.33,2.69,8.56,7.39a130.24,130.24,0,0,1-.58,23.37c-.65,4.85-5.35,6.83-10.15,7.17-13.79,1-27.59,1.94-41.39,2.78-10.27.63-20.55,1.17-30.84,1.52-2.75.1-3.58,1.33-4.26,3.7-3.14,10.91-6.44,21.78-9.72,32.65-1.76,5.85-.39,7.35,5.6,6.17,14.75-2.92,29.47-6.08,44.3-8.58,12.7-2.15,25.58-3.24,38.3-5.34,9.9-1.63,25,13.25,22.13,26.84a13,13,0,0,1-4,7c-10,8.05-19.81,16.59-30.69,23.36-21,13.05-43.55,22.72-68.27,26.38-14.28,2.12-27.33-.37-38.85-10-18.08-15.05-25.34-34.27-21.44-57,2.39-14,7.15-27.54,10.7-41.34a14.23,14.23,0,0,0,.07-6.06c-1.31-6.75-3.49-13.4-4.2-20.2-1-9.13,1.82-13.28,10.9-14.36,8.68-1,12.83-5.41,15.82-13,3.24-8.21,7.59-16,11.71-24.47-9-.33-17-2-24-6.89-7.17-5-11.78-12-15.12-19.89-1.72-4.07-.46-7.76,3.58-9.14a169.68,169.68,0,0,1,22.52-6.25,697.21,697.21,0,0,1,115.33-12.37c17.93-.45,30.27,7.08,39.58,21.33a92.61,92.61,0,0,1,7.16,12.33c3.87,8.57.92,14.43-8.34,15.69q-28.07,3.82-56.24,6.7c-12.53,1.28-25.14,1.75-37.7,2.75-1.22.09-3.06,1.11-3.39,2.1C1278.11,307.28,1275.62,315.65,1273.17,323.61Z"/><path d="M1041.06,333.71c-.74,5.42-1.89,10.83-2.16,16.27-1.09,22-1.67,43.94-3,65.89a226.15,226.15,0,0,1-3.78,30.13c-2.31,11.83-8.93,17.48-19.06,17.89a22.93,22.93,0,0,1-22.83-16.64,113.87,113.87,0,0,1-3.9-23.09c-1.84-31,.83-61.73,6-92.28,3.29-19.41,7.3-38.63,15.1-56.83,2.86-6.67,6.31-13,12.44-17.4,5.73-4.12,11.79-4.71,17.6-.74a61.9,61.9,0,0,1,10.62,9.46c17.8,19.5,32.19,41.48,46.11,63.8,9.27,14.85,18.39,29.8,27.93,44.47,1.72,2.65,5.18,4.16,7.84,6.19,1-3.16,3.13-6.46,2.77-9.46-1.91-15.52-3.46-31.19-7-46.39-7.14-30.78-15.66-61.24-23.14-92a68.55,68.55,0,0,1-1.33-20c.35-5.69,4.38-7.89,9.88-6.24a28.43,28.43,0,0,1,8.1,4.21c22.77,16.38,37.24,38.87,46.84,64.73,13,34.95,16.71,71.1,12.08,108a237.53,237.53,0,0,1-8.33,38.13c-3.49,11.74-11.46,20.68-22.71,26-12.31,5.83-25.68,3.25-35.72-6.45-12-11.54-21.14-25.22-29.29-39.5-10.66-18.66-20.58-37.74-30.87-56.61-1.69-3.09-3.57-6.09-5.55-9a20.6,20.6,0,0,0-3.11-3Z"/><path d="M677.93,196.55c-3.47,4.83-6.43,9.72-10.14,14-6.44,7.36-13.81,7.47-19.92-.17-8-10-14.15-21-9.34-34.71a4.53,4.53,0,0,0-1.23-3.79c-16.58-15.78-19.92-42.71-9.56-63.08,18-35.47,46.93-57.71,84.53-69.07,20-6,40.38-9.63,61.32-5.72,11.85,2.22,23,5.76,29,17.84.46.92,2.44,1.37,3.77,1.52,9.73,1.1,19.15,3.2,27.15,9.17,13.41,10,15.47,24.12,12.89,39.31-2.83,16.69-11.63,30.58-22.26,43.33-19,22.75-42.13,40.11-69.87,50.36C734.12,203,713.1,206.94,691.53,201,687,199.73,682.51,198.06,677.93,196.55Zm17.81-36.38c9.58,3,32.42,3.53,46.76,1.08,29.45-5.05,53.08-18.9,67.39-45.94,2.53-4.78,3.59-10.78,3.78-16.27.3-9.29-5.41-14.92-14.73-14.26a71.81,71.81,0,0,0-21.4,4.55c-20,8-36.39,21.47-51.87,36.1C714.59,135.89,704.4,147.14,695.74,160.17ZM715.28,80c-.21-.44-.43-.87-.64-1.31-7,2-14.23,3.49-20.94,6.21-19.44,7.87-32,22.25-38,42.31a14.61,14.61,0,0,0,2.08,13.1C673.83,116.75,692.31,96.23,715.28,80Z"/><path d="M677.62,365.5c1.69-28.05,3.22-56.12,5.19-84.15.51-7.31,2.21-14.55,3.76-21.74a28.76,28.76,0,0,1,3.59-8.91c5.19-8.45,14.76-9.32,21.22-1.93,9.25,10.58,14.91,22.71,15.58,37,1.47,31.46,3.4,62.9,4.6,94.37.81,21,.83,42,.89,63.07,0,5-1.19,10-1.87,15-.87,6.4-4.69,10.13-10.81,11.6a42,42,0,0,1-22.73-.62c-8.84-2.74-14.12-8.66-15.19-17.76-1.49-12.64-3.05-25.32-3.52-38-.61-16-.15-32-.15-47.93Z"/></g></g></svg>