<svg xmlns="http://www.w3.org/2000/svg" viewBox="0 0 1675.76 660.47"><g id="Capa_2" data-name="Capa 2"><g id="Capa_1-2" data-name="Capa 1"><path d="M588.05,86.16c2.44,37.23-7.62,72-21,106.18-3.58,9.14-9.2,17.9-7.78,28.32,1.55,11.31,3.09,22.67,5.63,33.78,6.25,27.33,12.59,54.59,12.36,82.88-.3,36.78-11.26,70.16-31.06,101-16.42,25.54-37.18,47.22-59.05,68-22.8,21.66-45.87,43-66.51,66.87-6.18,7.15-9,13.87-9.53,23.45-1.41,27.18-15.13,46-42.48,53.78-34.1,9.74-68.82,12.18-104.08,8.45-15.5-1.64-30.83-4-45.71-8.68-22.51-7-36.83-21.6-40.51-45.44-.85-5.54-.72-11.24-1.53-16.79a16.15,16.15,0,0,0-3-7.75C152,554,127.51,530.37,102.58,507.2,76,482.54,51.68,456.05,34.17,424a178.47,178.47,0,0,1-20-57.81,208.49,208.49,0,0,1,2-74.84c3.71-18.22,8.09-36.32,12-54.51,2.65-12.36,3-24.27-2.42-36.53-9.15-20.8-16.52-42.36-20.86-64.75A220.17,220.17,0,0,1,.9,104C0,85.26-1.11,66.32,2.41,47.75c4-21.34,17-35.9,37.4-43.24,22.12-7.93,43.8-4.64,65,3.94,18.49,7.48,33.64,19.55,46.13,34.92,8.11,10,11.29,11.09,23.8,7.61,15.62-4.36,31.23-8.82,47-12.49,22.68-5.26,45.15-4.57,66.84,4.82a12.91,12.91,0,0,0,11.22.06c21.49-9.41,43.83-10.12,66.33-5,17.64,4,35.08,8.9,52.52,13.72,7.65,2.11,12.77-.76,17.27-6.58a116.53,116.53,0,0,1,40.66-33.83C492.46,3.81,509.22-.75,527,.3c23,1.34,42.05,10.07,53.8,31.1,5,9,6.6,19,7.12,29.13C588.4,69.05,588.05,77.62,588.05,86.16ZM156,502.6c7.43-3.08,14-5.9,20.64-8.51a24.68,24.68,0,0,1,7.85-2.07c6.32-.23,9.59,5.55,6.26,10.88a19.39,19.39,0,0,1-4.88,5.14c-3.84,2.84-8,5.32-11.89,8-3.33,2.29-6.58,4.69-9.72,6.94,3.36,8,4.93,8.63,11.63,5.63,4.37-1.95,8.79-3.77,13.22-5.59,3.46-1.42,6.93-1.5,9.16,1.92,2.14,3.27,1,6.69-1.17,9.53a27.07,27.07,0,0,1-5,4.38c-1.75,1.36-3.61,2.59-5.48,3.79-3.06,1.94-2.94,3.75-.7,6.61,5.84,7.44,12.32,11.89,22.67,12.08,21.19.39,39.49-5.06,53.9-21.12a74,74,0,0,0,18.09-35.7c2-10.29-1.79-16-11.52-19.72-8.91-3.36-18.1-6.58-26.12-11.55-10.1-6.26-19.26-14.1-28.59-21.54-3.62-2.89-3.83-7.22-2.13-11.3s5.33-5.63,9.66-5.13a29.53,29.53,0,0,1,6.44,1.49c10.92,3.94,21.67,8.4,32.72,11.92,14,4.47,28.35,7.35,43.36,5.51,16.14-2,31.27-7,46-13.56,4.83-2.16,9.69-4.26,14.64-6.12,3.87-1.46,8.22-.76,10.16,2.54,1.57,2.67,1.08,6.75.87,10.16-.09,1.45-1.56,3.08-2.8,4.16-16.27,14.24-32.84,28.19-54.39,33.68a15.44,15.44,0,0,0-11.11,18.58c4.92,22.75,16.73,40.62,37.85,51.4,12.1,6.17,25.2,6.87,38.52,5.82,8.68-.68,19.05-8.5,22.24-17.49-1.86-1.41-3.89-2.9-5.87-4.46a45.58,45.58,0,0,1-5.87-4.89c-2.58-2.88-3.64-6.4-1.32-9.87s6-2.89,9.29-1.69c4,1.45,7.86,3.33,11.78,5,6.63,2.91,9.12,1.66,11.49-6.34-6-4.06-12.35-8.11-18.43-12.46a26.29,26.29,0,0,1-6.49-6.35,6.83,6.83,0,0,1,.42-8.61,7.42,7.42,0,0,1,8.38-2.28c2.12.66,4.16,1.55,6.21,2.4,5.49,2.24,11,4.52,17,7,.75-2.14,1.72-3.67,1.74-5.2.05-4.42.22-8.94-.56-13.25-3-16.6-11.22-30.66-21.74-43.55a33,33,0,0,1-4.29-6.32,7.57,7.57,0,0,1,2.3-9.59c3.39-2.47,6.32-.83,8.76,1.41a67.91,67.91,0,0,1,6.75,7.69c11.78,14.53,22.73,29.58,28,47.89,1.25,4.33,2.1,8.78,3.27,13.74a38.15,38.15,0,0,0,4-2.87c18.65-17.87,37-35.95,52.64-56.68,32.73-43.33,40.85-91.44,29.45-143.7-4.25-19.51-8.62-39-12.48-58.59-2.54-12.86-1-25.4,4.08-37.66,12.06-29.29,22.6-59,24.76-91a214.65,214.65,0,0,0-2.09-46.46,34.75,34.75,0,0,0-5-13.28c-5.85-9.09-15.41-12-25.56-13-12.25-1.15-23.79,2-34.75,7.13C474.42,46,460.88,59.24,451.13,76.34c-4,7.06-9.76,10.31-17.82,9.09-5.74-.88-11.53-1.61-17.14-3-18-4.57-35.94-9.65-54-14.15C340.75,62.91,320,64.44,301,76.62c-4.84,3.1-8.65,3.17-13.5,0A68.32,68.32,0,0,0,249.2,65.41c-16.06.15-31.29,4.81-46.65,8.9-14.84,4-29.77,7.61-44.79,10.77-10.57,2.21-15.43-.41-20.84-9.62C129.53,62.87,120,52.21,107.77,44.25c-17-11.08-35.19-17.31-55.85-12C41.05,35,33.2,42.54,32.15,53.81c-1.37,14.76-2,29.63-2.25,44.46a132.6,132.6,0,0,0,5.9,41.46c5.55,17.75,12,35.2,17.94,52.84,2,6,4.22,12,4.95,18.19,1.45,12.31-.4,24.51-3,36.61C50.55,270.7,44,293.71,41.54,317.62a165.77,165.77,0,0,0,1.39,45.45c4.19,24.33,14.75,46,28.72,66.25,16.17,23.4,36.49,42.94,56.94,62.4a15.86,15.86,0,0,0,3.18,1.79,13,13,0,0,0,1.34-3.08c1.83-14.83,8.29-27.78,16.64-39.81,5.93-8.55,12.47-16.7,19-24.8,3.18-3.92,7.35-4.45,10.41-2.11s3.65,6.92.92,11.07c-1.5,2.28-3.28,4.38-5,6.52-8.51,10.66-15.26,22.27-18.89,35.51C154,485,154,493.23,156,502.6Zm138.69,39.16c-4.08,5.63-7.41,11.22-11.68,16-13.35,14.85-31.16,21.07-50.13,24.53-7,1.28-14.23,1.7-21.36,2.4-2.38.24-4.41.54-4.67,3.55-1.07,12.84,2.38,27.39,18.06,31.84,12.58,3.58,25.51,7,38.47,7.93,18.87,1.4,37.91.92,56.87.5,14.2-.31,28.07-3.45,41.69-7.59,15.87-4.83,20.68-17.37,19.87-31.81-.16-3-1.44-4.17-4.39-4.42-6.46-.53-12.94-1.08-19.33-2.11C331.16,578.18,307.77,568.19,294.65,541.76Z"/><path d="M1406.39,283.67l54,79.18-.7,1.37a59.32,59.32,0,0,1-6.73.79c-15.56.07-31.12-.1-46.67.13-4.65.06-7.56-1.6-10.08-5.44-13.17-20-26.69-39.72-39.73-59.77-3.43-5.27-7.15-7.95-13.67-7.42-7.13.58-14.35.1-21.53.14-6.53.05-7.07.53-7.09,7-.06,14.87,0,29.75,0,44.62,0,4.1,0,8.21,0,12.31-.06,8.15-.35,8.47-8.3,8.48q-18.21,0-36.41,0c-8.49,0-8.68-.21-8.68-8.57q0-91.56,0-183.11c0-10.43,0-20.86,0-31.29,0-6.44,1-7.47,7.47-7.48,34.54-.05,69.08-.4,103.61.13,20.3.32,39.64,5,56.09,18,14,11,21.74,25.51,24.76,42.89,2.69,15.51,1.76,30.65-3.64,45.43-6.61,18.12-19.29,30.72-36.34,39.23C1410.91,281.13,1409.18,282.15,1406.39,283.67Zm-92.23-70.35c0,8.2,0,16.41,0,24.61,0,6.27.6,6.87,6.64,6.89,15.39,0,30.77.2,46.14-.11a48.86,48.86,0,0,0,14-2.5c12.17-4,19-14,19.29-27.33.34-14.08-5.55-24.1-17.92-28.65a58.75,58.75,0,0,0-17.93-3.67c-14.68-.52-29.39-.21-44.09-.16-5.49,0-6.07.63-6.13,6.31C1314.1,196.91,1314.17,205.12,1314.16,213.32Z"/><path d="M1218.79,282.86c0,14.37-.18,28.74.1,43.1.1,5-1.8,8.16-5.67,11.14-18.6,14.29-39.14,24.6-62.18,29-37.7,7.18-73.69,3.09-105.69-19.9-24-17.22-38.4-40.9-43.79-69.91-5.44-29.27-2.69-57.54,11.87-84,16-29,40-48.22,72-56.82,31.69-8.53,63.09-6.68,93.2,6.5,10,4.4,19,11.39,28.19,17.53,4.19,2.8,4.08,4.13.67,8.3Q1195.3,182.7,1183,197.47c-4.89,5.84-5.18,5.8-11,1.15-8.5-6.77-17.66-12.45-28.17-15.38-23.9-6.64-46.58-5.1-65.94,12.2-15,13.39-22.58,30.5-23.46,50.65-.8,18.42,3.43,35.35,14.91,50,13.13,16.72,30.84,24.29,51.82,24.65a85,85,0,0,0,39.2-8.45c5.28-2.56,8.32-5.9,7.6-12.3-.57-5.06-.08-10.24-.13-15.37,0-6.3-.48-6.8-6.66-6.84-11.29-.07-22.57,0-33.86,0-1.71,0-3.42-.05-5.13-.13-3.27-.16-5-1.82-5-5.19q0-18,0-35.91c0-3.67,1.94-5.26,5.4-5.37,1.71-.06,3.42-.1,5.13-.1h81.06c1.36,0,2.73,0,4.1,0,5.13.25,5.92.93,6,6.14.08,13.34,0,26.68,0,40Z"/><path d="M1493.23,249.75V146.1c0-1.71,0-3.43.06-5.13.27-5.22,1.2-6.28,6.54-6.35,10.94-.13,21.89-.07,32.84-.08h125.21c10.21,0,10.25.06,10.26,10.28s0,20.18,0,30.27c0,6.48-.58,7.05-7.08,7.06q-52.61.08-105.2,0c-9.7,0-9.71,0-9.72,9.56,0,8.89,0,17.78,0,26.68,0,7.05.35,7.34,7.71,7.35h88.77c1.71,0,3.42.07,5.13,0,3.76-.1,5.69,1.42,5.65,5.45-.1,12,0,23.95-.07,35.92,0,4.69-1,5.43-6.6,5.44-20.86.07-41.73,0-62.6.05-10.44,0-20.87,0-31.3,0-6,0-6.63.52-6.67,6.3q-.12,16.42,0,32.84c0,5.77.63,6.29,6.68,6.29q52.86,0,105.71,0c11.26,0,11.27,0,11.27,11.14,0,9.58,0,19.16,0,28.74,0,6.2-.67,7-6.67,7q-81.58.06-163.18,0c-6,0-6.67-.71-6.67-7.5Q1493.2,303.63,1493.23,249.75Z"/><path d="M775,134.55q43.35,0,86.7,0c8.45,0,9,.61,9.06,9.06,0,10.95.07,21.89,0,32.83-.06,6.44-1,7.36-7.58,7.38-18.12,0-36.25,0-54.38,0-7,0-7.23.18-7.23,7.2q0,82.08,0,164.17c0,9.8,0,9.81-10,9.82q-17.7,0-35.4,0c-7.45,0-8-.47-8-7.77,0-16.76,0-33.52,0-50.28q0-55.92,0-111.84c0-1.71,0-3.42,0-5.13-.18-5.47-.76-6.12-6.38-6.14-17.27-.06-34.54,0-51.81,0-1.71,0-3.43-.11-5.13,0-4,.22-5.51-1.84-5.48-5.61.05-6.67,0-13.34,0-20,0-5.3,0-10.6,0-15.9.05-7.28.47-7.73,8-7.76,13.51-.05,27,0,40.53,0Z"/><path d="M905.24,250.27V145.09c0-1.71.11-3.42,0-5.13-.11-3.7,1.82-5.29,5.33-5.31,6.33,0,12.66-.09,19-.1,7,0,14-.07,21,0,6.55.1,7.16.83,7.28,7.56,0,1.2,0,2.4,0,3.6q0,104.92,0,209.84c0,9.44,0,9.45-9.23,9.46-12.14,0-24.28,0-36.43,0-6.57,0-7-.44-7-7Q905.21,304.14,905.24,250.27Z"/><path d="M828.66,449.9c-4.63,6.69-9.31,13.35-13.89,20.08-7.6,11.16-15.13,22.37-22.71,33.54-4.62,6.81-5.84,6.76-10.39.05Q765,479,748.19,454.42c-.91-1.34-2-2.55-3-3.82l-1.2.32c-.15,2.1-.43,4.2-.44,6.31q0,37.44,0,74.89c0,2,0,4.1-.17,6.15-.2,3-1.81,4.68-4.93,4.72l-2.56.06c-8,.08-8.79-.63-8.79-8.72q0-54.12,0-108.23c0-7.38.92-7.94,8.25-8.37,5.85-.34,9.41,2,12.54,6.86,11.43,17.64,23.22,35.05,34.9,52.52,1.11,1.66,2.39,3.21,4,5.43,1.56-1.9,2.83-3.19,3.82-4.67q17.76-26.37,35.42-52.8c4.8-7.18,8.09-8.57,16.78-7.08,2.57.44,4.07,1.61,4.13,4.3,0,1.71.12,3.42.13,5.13q0,53.1,0,106.18c0,1.71-.05,3.42-.14,5.13-.12,2.65-1.53,4.06-4.18,4.21l-1,.07c-10.54.81-11.49,0-11.5-10.64q0-37.71,0-75.41V450.4Z"/><path d="M1102,510.1c.11-1.94.31-3.88.32-5.81q0-38,0-75.93c0-1.71,0-3.42.09-5.13,0-1-.05-2.31.52-3,3.31-4,7.84-2.2,11.94-2.17,2.94,0,4.06,2.14,4.18,4.85.07,1.7.13,3.42.13,5.12V532.71a8.85,8.85,0,0,1,0,1c-.38,3.22,1.09,7.2-3.15,8.93-4.43,1.81-10.35.06-13.34-3.73q-34.15-43.28-68.31-86.56c-1.09-1.39-2.31-2.69-3.46-4l-1.23.45c-.09,1.95-.26,3.9-.26,5.85q0,39.77,0,79.52c0,8-6.34,11.94-13.66,8.29a5.72,5.72,0,0,1-2.44-3.55,26.49,26.49,0,0,1-.34-6.12q0-52.32,0-104.66c0-10,2.65-12.25,12.38-9.89,2.37.58,4.74,2.67,6.34,4.68,13.21,16.58,26.24,33.31,39.33,50q13.29,17,26.63,33.86c1,1.28,2.2,2.42,3.3,3.63Z"/><path d="M1548.65,480.55c0-34.56,25-64.44,63.46-64.5,38.28-.07,63.85,28.57,63.65,64.7s-26.57,64-63.8,64.3C1575.92,545.31,1548.61,517.25,1548.65,480.55Zm110.52.28c-.89-5-1.32-10.17-2.74-15-10.52-36-50.76-42.74-72.67-24.43-17.12,14.31-21.66,33-15.91,54.21,7.21,26.66,36.35,40.89,61.9,30.51C1647.48,518.87,1658.5,501.59,1659.17,480.83Z"/><path d="M1384.45,480.4c0-18.11,0-36.22,0-54.33,0-7.42.82-8.32,8.3-8.21,16.21.22,32.47-.05,48.61,1.21,15.54,1.21,28.1,8.43,34.51,23.56,9.22,21.77-1.86,45.92-24.23,53.54a78.86,78.86,0,0,1-27.74,3.81c-5.63-.14-11.27-.09-16.91,0-5,.09-5.62.66-5.67,5.66-.09,9.9,0,19.81-.09,29.72,0,2.59.89,6.43-2.54,7a32.16,32.16,0,0,1-12.42-.7c-1.06-.25-1.74-4.18-1.76-6.42C1384.39,517,1384.45,498.68,1384.45,480.4Zm16.89-21.55c0,6.84.07,13.67,0,20.51,0,3.67,1.54,5.28,5.22,5.23,9.23-.12,18.47.19,27.68-.25a32.08,32.08,0,0,0,19.37-7.2c8.2-6.83,10-15.85,7.44-25.57-2.65-10.27-10.53-15.75-20.51-16.76-11.35-1.15-22.85-.75-34.29-1-3.43-.08-4.93,1.66-4.9,5.05C1401.39,445.52,1401.34,452.18,1401.34,458.85Z"/><path d="M965.18,460.71c0-12,0-23.93,0-35.9,0-5.78,1.1-6.76,6.94-7,1,0,2.05,0,3.08,0,5.83.21,6.9,1.19,6.92,7,.05,19.15.17,38.3,0,57.44a180.67,180.67,0,0,1-1.58,21.93c-2.81,21-18.45,36.14-39.29,39.58-14.21,2.35-27.66,1-40.14-6.14-13.79-7.86-20.71-20.53-22.47-35.95a240.64,240.64,0,0,1-1.13-25.06c-.15-17.27-.08-34.53,0-51.8,0-5.9,1.1-6.8,7-7,.51,0,1,0,1.54,0,7.49,0,8.28.72,8.29,8.1,0,22.06,0,44.11.06,66.16,0,8.73,2.12,17,7.3,24.12,7.31,10.09,18,13.61,29.67,13.19,13.63-.5,25.22-5.69,30.47-19.42A55,55,0,0,0,965,493c.5-10.75.14-21.54.14-32.31Z"/><path d="M1260.52,545.53c-35.49-.83-59.44-27.22-62.07-57.6-1.62-18.65,2.57-35.32,14.49-49.74,10.36-12.53,23.8-19.67,40-21.48,15.39-1.72,30,.39,43.32,8.66a115.61,115.61,0,0,1,10.65,8c2.65,2.11,2.78,4.54.32,7l-.35.37c-7.87,8.29-6.77,8.38-15.33,1.68-21.09-16.52-49.94-13.91-65.69,5.94-17.76,22.38-13.24,55.56,7.73,71.74,16.66,12.85,39.52,12.64,56.74-.34.95-.72,1.87-1.49,2.79-2.26,7.17-6,8.64-5.78,15,1.24,2,2.23,2.09,4.16.06,6.24-8.94,9.12-19.38,15.72-32,18.34C1271.05,544.38,1265.76,544.81,1260.52,545.53Z"/><path d="M1334.25,480.15c0-18.28,0-36.56,0-54.84,0-2.59-.83-6.37,2.79-6.81a38.2,38.2,0,0,1,12.4.91c.88.18,1.49,3.58,1.52,5.51.16,10.25.1,20.5.1,30.75q0,38.44,0,76.88c0,2.05.33,4.27-.34,6.09-.61,1.64-2.19,3.73-3.68,4.06-2.93.63-6.11.32-9.17.12-2.82-.19-3.54-2.34-3.56-4.76-.07-5.3-.09-10.59-.1-15.89q0-21,0-42Z"/><path d="M1169.35,480.8c0,18.11.08,36.22-.11,54.32,0,2.46-1.07,6.78-2.27,7-4,.79-8.33.27-12.49-.17-.71-.08-1.5-2.16-1.73-3.42a31.73,31.73,0,0,1-.25-5.61q0-52.54,0-105.07c0-1.71.07-3.42.14-5.12.14-3.09,1.8-4.66,4.86-4.8.85,0,1.7-.09,2.56-.11,8.61-.17,9.27.45,9.28,9.15Q1169.38,453.89,1169.35,480.8Z"/><path d="M1520,480.41q0,27.42,0,54.83c0,2.66.68,6.41-2.6,7-3.84.73-8,.07-12-.41-.69-.08-1.41-2.2-1.63-3.46a34,34,0,0,1-.23-5.62q0-52.27,0-104.54c0-.34,0-.69,0-1,.07-8.69,4.94-11.93,13.3-8.95,3.17,1.13,3.13,3.71,3.13,6.29q0,21,0,42Q1520,473.5,1520,480.41Z"/><path d="M342.7,349.59c-.77-21.87,3.63-41.37,11.13-60,8.4-20.87,25-31.58,47-34.88,14.38-2.17,28.64.14,42.95.55,6.09.18,7.9,3.61,5.61,9.39-6.22,15.73-14.34,30.2-27.15,41.68-10.23,9.17-22.49,14-35.52,17.44-4.12,1.08-8.16,2.51-12.3,3.5-10.72,2.57-14.7,10.53-15.8,20.3-1.74,15.49.37,30.68,5,45.53,1.41,4.56,3,9.06,4.51,13.61a14.69,14.69,0,0,1,.67,3c.3,2.89,0,5.64-3.23,6.76s-5.69-.43-7-3.4c-2.43-5.27-4.91-10.54-7-16C345.55,381.3,341.34,365.17,342.7,349.59Zm37-73.55-2.37-1.52c-2.11,2.86-4.23,5.72-6.33,8.6-2.69,3.67-2.95,7.69-.31,11.39,4.8,6.75,11.33,10.8,19.68,11.43,17.07,1.31,33-16.44,28.76-37.36a4.49,4.49,0,0,0-5.19-3.91c-4.17.42-8.31,1.23-12.25,1.84,0,4.8.29,8.89-.08,12.93a11,11,0,0,1-9.31,10.11c-4.74.54-8.56-2.26-10.62-7.82C381,279.85,380.32,277.94,379.66,276Z"/><path d="M247.48,345.29c.31,26.07-6.56,47.39-16.45,67.93-1.46,3-4,4.39-7.2,3s-3.87-4.06-2.92-7.29c2.71-9.17,5.87-18.25,8-27.56,2.65-11.83,4.22-23.74,1.82-36.05-2.22-11.36-9-16.8-19.6-19.55-9.22-2.39-18.51-5-27.24-8.78-16.2-7-27.22-19.76-35.48-35a180.05,180.05,0,0,1-7.91-16.67c-2.7-6.51-.44-10,6.54-10.16,12.61-.35,25.28-1.21,37.84-.49,29.22,1.66,46.78,18.44,54.21,43.73C243.82,314.67,247.45,331.15,247.48,345.29Zm-60.07-78.57a5.94,5.94,0,0,0-1.5-.51c-3-.56-6-1.22-9.09-1.51-4.58-.45-7,1.39-6.87,6,.2,5.54.46,11.37,2.28,16.51,3.44,9.75,10.62,16.39,21,18.36,9.67,1.85,17.82-1.81,24.18-9.17,6.22-7.2,1.88-18.37-8-20.34-.35,1.64-.57,3.32-1.07,4.92-1.67,5.39-5.6,8.66-10.18,8.61-4.41-.05-8.37-3-9.63-8.45C187.52,276.87,187.78,272.25,187.41,266.72Z"/><path d="M318.22,187.64c-.31,13-3,25.21-9.14,36.52a28.87,28.87,0,0,1-6.42,7.84c-5.37,4.65-11.86,4.75-17.31.38-12.2-9.8-16.6-23-15.45-38.13.86-11.31,5.69-21.36,11.83-30.74,4.47-6.83,10.3-11.44,19.13-10.09,7.49,1.15,12.84,6.15,14.38,14.06C316.54,174.14,317.25,180.91,318.22,187.64Z"/><path d="M126.4,122c-1.9,3.16-3.15,7-5.75,9.25-14.23,12.48-25.08,27.42-33.58,44.21-3.18,6.28-8.4,9.17-13.48,7.79-4.47-1.21-5.85-3.07-4.49-7.43,2-6.33,3.89-12.8,6.82-18.71,5.69-11.46,11.9-22.66,18.28-33.75,1.72-3,1-5-.33-7.49C85.49,100,77.08,84.17,69,68.19a30.3,30.3,0,0,1-2.91-10.71c-.16-1.72,1.44-4.29,3-5.23.9-.54,3.83.94,4.94,2.27q24.35,29.1,48.33,58.5C124.15,115.27,124.84,118.45,126.4,122Z"/><path d="M525.41,57.61c-.95,3.09-1.31,5.33-2.28,7.25-8.51,16.73-17,33.47-25.82,50-2,3.81-2.1,6.38.33,10.14,9.95,15.37,18.31,31.6,23.52,49.26.64,2.16.67,5.54-.59,7-2.12,2.44-5.53,2.87-9,1.67-3.88-1.33-6.12-4.07-7.91-7.52-6.4-12.32-13.75-24-23.38-34.1-2.94-3.09-6-6.08-9.2-8.89-7.07-6.22-7.85-13.35-1.86-20.63q20.67-25.11,41.47-50.12c1.74-2.11,3.23-4.48,5.23-6.29,1.62-1.48,4.34-3.6,5.67-3.09C523.38,53,524.31,55.94,525.41,57.61Z"/><path d="M518.74,364c-.43,18.54-6.51,33.4-21.4,43.62-7.72,5.3-16.16,7.89-25.71,4.68-12.28-4.13-18.2-17.06-12.75-28.95,3-6.46,7-12.19,13.09-16.13,8.73-5.66,17.55-11.2,26.38-16.72a22.81,22.81,0,0,1,4.71-2c7.71-2.63,13.26.35,15,8.26A48.52,48.52,0,0,1,518.74,364Z"/><path d="M71.92,368.84c0-2-.13-4.1,0-6.14.7-10,7.67-14.81,16.67-10.38,9.29,4.58,17.88,10.58,26.81,15.89,7.31,4.35,12.34,10.65,15.91,18.24,6.64,14.1-2.87,29.53-18.41,29.9S82.4,406.23,76.1,390.28a74.23,74.23,0,0,1-3.5-11.76c-.68-3.14-.65-6.43-.93-9.66Z"/><path d="M222,176.87c-8.84-.45-16.67-2.92-23.57-8.23a22.93,22.93,0,0,1-6.86-28.09c3.43-7.16,10.08-9.85,17.16-10.44a56.08,56.08,0,0,1,17.63,1.55c8.76,2.12,17.3,5.19,25.85,8.11a19.7,19.7,0,0,1,6.08,3.71c4.27,3.59,5.06,8.05,2.07,12.81-5.53,8.79-14,14-23.44,17.39C232.16,175.4,227,175.85,222,176.87Z"/><path d="M524.38,251.77c0,10.15-7.62,16.09-17.25,13.7a30.79,30.79,0,0,1-18.62-12.77A131.75,131.75,0,0,1,468,201.81a135.79,135.79,0,0,1-1.57-16.26c-.2-3.33.39-6.85,3.89-8.23,3.93-1.54,6.91.83,9.26,3.77a26.56,26.56,0,0,1,3.61,5.57c7.58,16.86,18.47,31.46,30.9,45,4.93,5.36,9.34,10.91,10.19,18.47C524.37,250.77,524.37,251.46,524.38,251.77Z"/><path d="M126.43,189c-1.73,22.23-9.08,42.64-21.06,61.26C99.8,259,91.78,264.7,80.69,264.23c-6.3-.27-10.42-4.34-11-10.57-.73-8,1.69-14.62,7.25-20.49,13.2-13.93,24.79-29,32.79-46.69a19.4,19.4,0,0,1,5.4-7.31c1.9-1.44,5.26-2.41,7.35-1.71,1.78.6,3,3.74,3.82,6C126.91,185.11,126.43,187.16,126.43,189Z"/><path d="M391.54,146.51c.65,13.06-7.09,19.85-17,24.38s-20.24,6.12-31,3.38c-7.09-1.8-12.5-5.66-14.8-12.8-2.45-7.56-.3-14.15,5.18-19.73,7-7.15,15.83-10.62,25.5-12,8-1.14,15.92-1.59,23.46,2.66C388.76,135.73,392.6,139.9,391.54,146.51Z"/><path d="M375.28,189.6c4.12,1,9.46,1.55,14.29,3.46,8.2,3.25,10.22,10.19,5.59,17.94-5.19,8.67-12.2,15.73-21.26,20.18a166.38,166.38,0,0,1-24.11,9.71c-3.38,1.05-7.7,0-11.36-1-4-1.06-5.79-4.3-6-8.55-1-17.63,14.15-37,31.59-40.17C367.34,190.54,370.73,190.22,375.28,189.6Z"/><path d="M256.66,231.79c-.49,10.71-7.24,15.7-17.44,12.56a101.79,101.79,0,0,1-31.55-16.75c-11.37-8.64-8.3-27.57,5.6-33.92,4.66-2.12,10.2-2.38,15.38-3.26a5.46,5.46,0,0,1,3.34,1.07c10.23,6.51,18.52,14.63,21.58,26.89C254.68,222.83,255.63,227.32,256.66,231.79Z"/><path d="M130.4,332.8c-9-.06-16.24-3.16-21.05-11.19s-9.4-16-6.7-25.87a34.15,34.15,0,0,1,2.12-5.72c2.63-5.42,6.66-9.28,13-9.32a14.14,14.14,0,0,1,13.56,8.45c3.9,8.13,7.78,16.29,11.16,24.64a16.72,16.72,0,0,1,.64,8.94C141.79,329.52,137.24,332.84,130.4,332.8Z"/><path d="M155.51,339.3c11.19,0,21.37,4,31.32,8.46,5.41,2.43,6.95,8.84,4.32,14.55s-7.36,8.66-12.84,10.17c-11.41,3.16-22.31,1.75-32-5.49a16.71,16.71,0,0,1-7-15.1c.42-7.77,4.87-12.17,12.65-12.58C153.12,339.25,154.32,339.3,155.51,339.3Z"/><path d="M535.82,319.5c-.91,5-1.07,10.23-2.9,14.84-2.62,6.62-8.6,7.92-14.74,4.18-16.93-10.3-20.62-35.77-7.32-50.52,5.55-6.14,11.35-5.95,16.08.83C533.32,298,535.58,308.33,535.82,319.5Z"/><path d="M53.54,318.64a44.29,44.29,0,0,1,7.18-29.27c4.91-7.44,10.72-7.74,16.69-1,12.93,14.56,9.65,38.86-6.69,49.59-8,5.26-16,1.63-17.11-8C53.17,326.21,53.54,322.4,53.54,318.64Z"/><path d="M216.75,118.17c-11.78.34-17.63-5.69-14.77-13.42,3.2-8.65,8.78-15.37,17.3-19.33,10.23-4.74,20.31-4,30,1.49,8,4.5,8.7,11.18,2.1,17.51a46.39,46.39,0,0,1-22.92,11.82C223.93,117.19,219.35,117.75,216.75,118.17Z"/><path d="M302.23,250.66c3.37.42,6.93.31,10,1.44,2,.75,4.54,3.11,4.9,5.09,2.43,13.41-3.84,25.47-16.85,29.41-3.53,1.07-7.43,1.94-11,1.56-12.42-1.33-20.55-13.24-17.93-25.57.85-4,3.05-6.9,7.19-7.78,7.8-1.66,15.63-3.16,23.45-4.73Z"/><path d="M448.85,159.38a50.59,50.59,0,0,1-1.47,6.53c-2.9,8.31-8.47,10.51-16.44,6.74-2.47-1.16-4.95-2.29-7.47-3.34-7.92-3.29-13-9.06-15.54-17.24-2.38-7.6.13-16.67,6.16-21.09,5.21-3.82,14.19-3,20.53,1.9C443,139.36,448.24,147.57,448.85,159.38Z"/><path d="M291.29,95.88c6.56.94,13.16,1.65,19.67,2.89a12.09,12.09,0,0,1,8.65,17.62c-6.35,11.81-12.34,13.81-27.26,13.31-8.32-.28-15.16-3.53-19.53-11.06-2.94-5-3.95-10.34-1.17-15.59,2.64-5,7.32-6.84,12.9-6.57,2.21.1,4.44,0,6.65,0Z"/><path d="M488.87,304.38c-1,10.16-6.44,19.23-16.07,25.67-4.41,2.95-9.12,2.63-13.45-.38-7-4.87-10.7-11.77-11.63-20.17-.51-4.61,1.58-8.38,4.64-11.5a30,30,0,0,1,24.56-9.26C485.15,289.34,489,294.11,488.87,304.38Z"/><path d="M435.14,335.08c4.36,1.34,9,2.17,13,4.13,6,2.92,7.82,8.39,4.54,14.1a40.61,40.61,0,0,1-25,19.12c-7.57,2.12-20.05-5.52-22.52-12.91-1.81-5.39.5-9.88,4.21-13.42C416.46,339.34,425.05,335.87,435.14,335.08Z"/><path d="M186.84,179.85c-.31,13.94-9.07,16.48-16,12.93-8.41-4.3-16.68-8.51-23-15.78-6.94-8-3.83-18.3,6.42-21.06,9.27-2.51,21.67,2.7,27.66,12.34C184.52,172.49,185.87,177.5,186.84,179.85Z"/><path d="M149.61,117.08c.49-2,.62-4.1,1.54-5.84,4.16-7.88,21.82-12.43,29.3-7.73,3.6,2.26,4.93,5.66,4.55,9.65-.89,9.43-4.74,17.48-12.2,23.45-6.81,5.44-14,4.24-18-3.43-2.56-4.89-3.89-10.43-5.76-15.68Z"/><path d="M112.51,429c6.21-.14,11.62,2.17,16.69,5.51,3.83,2.52,5.59,6.42,4.81,10.55a58.3,58.3,0,0,1-5,15.41c-3.91,7.75-10.4,9-17.36,3.74-7.63-5.73-11.65-13.76-12.84-23C97.79,433.21,102.94,428.91,112.51,429Z"/><path d="M455.73,442.33c-1.22-6.4,2-10.27,7.32-12.61,6.54-2.89,13.16-6,20.56-2.74,4.15,1.8,6.59,4.8,6.44,9.48-.35,10.12-4.37,18.57-12.4,24.7-7.23,5.53-14,3.89-18.06-4.36-2.2-4.48-3.38-9.47-5-14.23Z"/><path d="M353.86,109.69c-10.73.2-20.52-9.45-20.29-17.23a10.6,10.6,0,0,1,5.65-9.15c9.22-5.46,24.74-4,32.65,3.13,6.93,6.23,6.59,13-1.65,17.19C364.25,106.68,357.58,108.35,353.86,109.69Z"/><path d="M453.1,205.05A25.26,25.26,0,0,1,441,223.77a10.68,10.68,0,0,1-6.77,1.37c-6.92-1.13-10-6.54-12.3-12.41-1.94-5-1.28-9.7,2.53-13.74a24.17,24.17,0,0,1,16.81-7.57C449.29,191,453.2,194.94,453.1,205.05Z"/><path d="M197.41,397.87c0,8.49-4.51,12.67-13,11.6-6.59-.84-12.52-3.23-16.34-9.21-2.31-3.63-2.14-7,.69-10.31a21.09,21.09,0,0,1,16.27-7.31C192.6,382.55,197.43,388.89,197.41,397.87Z"/><path d="M404.87,409.59c-8.42.05-12.22-3.77-12.35-11.4-.14-8.36,4.05-14.24,11.07-15.51,6.76-1.23,17.87,4.35,19.3,10.57.61,2.64-.69,6.4-2.39,8.76C416.55,407.51,410.26,408.91,404.87,409.59Z"/><path d="M171.72,216.34c-.06,6.44-3,10.56-9.46,11.26a37,37,0,0,1-13.51-1.22c-4.07-1.11-6.81-4.28-7.22-9a10.88,10.88,0,0,1,5.25-10.89,20,20,0,0,1,16.74-2.28C169,205.76,171.78,210.19,171.72,216.34Z"/><path d="M415.41,115.76c-5.72-1.58-11.6-2.74-17.1-4.87-6-2.33-8.21-5.84-7.69-10.15.56-4.68,4.33-8.15,10.21-9.4,8.19-1.72,20.22,5.44,22.54,13.43C425.05,110.53,421.52,115.19,415.41,115.76Z"/></g></g></svg>