<svg xmlns="http://www.w3.org/2000/svg" viewBox="0 0 1021.95 660.47"><g id="Capa_2" data-name="Capa 2"><g id="Capa_1-2" data-name="Capa 1"><path d="M519.5,0c26.6,1.82,53.2,3.42,79.77,5.53a604.66,604.66,0,0,1,79.29,12c77.88,16.78,150.44,46.06,215.27,93,36.68,26.55,68.31,58.07,92.17,96.87,16.2,26.32,27.55,54.52,32.74,85.12,8.35,49.25.23,95.86-22.18,140.2-18.79,37.15-45.32,68.12-76.67,95.13-42.16,36.31-90.06,63-141.51,83.54a630.53,630.53,0,0,1-122,35.16c-23.48,4.25-47.23,7.21-71,9.95-36.35,4.19-72.9,4.8-109.4,2.88-23.72-1.25-47.42-3.72-71-6.52-37.62-4.46-74.49-12.78-110.72-23.81C234.8,611,178.87,585.51,128.44,548.76,93,522.93,62.11,492.61,38.37,455.45c-17-26.6-29.11-55.23-34.73-86.37C-5,321.22,1.88,275.41,22.8,231.65c18.06-37.8,44.17-69.42,75.38-97,41.6-36.77,89.11-63.84,140.27-84.84a605,605,0,0,1,120-35.2C384.7,9.76,411,5.81,437.66,4.17,464.88,2.49,492.14,1.37,519.5,0ZM133.39,165.16a15.36,15.36,0,0,0-1.59,1.37c-30.18,37.3-50.27,79.08-55.7,127.15a214.67,214.67,0,0,0,9.51,91.43c13.43,41.26,37,76.2,67.37,106.7,35.09,35.18,76.19,61.58,121.27,82,58.52,26.53,120.12,40.95,183.9,46.77,4.24.38,8.5.49,12.81.72-5.61-5.79-11.32-11-16.25-16.9-18.17-21.68-29.94-46.9-39.37-73.29-11.89-33.29-19.21-67.64-23.8-102.65A679.81,679.81,0,0,1,386,352.12c-.15-8.69,0-17.38,0-26.12-1.05-.28-1.88-.55-2.73-.71-13.81-2.55-27.69-4.84-41.44-7.68-33.07-6.84-65.37-16.33-96.51-29.48-26.74-11.29-52.24-24.78-74.16-44.1C147.68,223.32,130.79,199.23,133.39,165.16Zm755.28-.44c0,1.75,0,2.47,0,3.17,1.28,15.26-2.4,29.4-9.78,42.65-10.55,18.93-26,33.3-43.44,45.64-31.65,22.38-67,36.81-103.81,48.21C702,313.57,671.78,320.06,641.17,325c-5.38.86-5.3,1-5.17,6.59a576.09,576.09,0,0,1-3.72,81.71c-2.55,21.21-6.12,42.34-10.29,63.3a355.09,355.09,0,0,1-29.6,88.55c-9.79,19.78-21.5,38.21-38.28,52.95-1.07.94-2.12,1.9-3.62,3.26,1.3,0,1.91.06,2.5,0,16.83-1.79,33.81-2.74,50.45-5.61,22-3.78,44-8.21,65.63-13.89,54-14.18,104.46-36.44,150.31-68.54,40.75-28.52,75.16-63,99.22-107,23.79-43.49,33.24-89.83,26.49-139.09-4.08-29.81-14.3-57.59-29.33-83.63A278.91,278.91,0,0,0,888.67,164.72Zm-259.39,79c1.32-.11,2.31-.13,3.29-.29a529.42,529.42,0,0,0,70.12-16c21.92-6.75,43.26-14.94,62.92-27,11.54-7.07,22.17-15.23,30.28-26.3,12-16.41,12.43-34.84.49-51.26a90.46,90.46,0,0,0-13.65-14.76C767.64,95,749.89,86.24,731.44,78.85c-41.79-16.73-85.55-25.24-130-30.38-19.53-2.26-39.2-3.65-58.85-4.44a777.94,777.94,0,0,0-126.09,5c-32.54,4-64.64,9.9-96,19.41-24.25,7.34-47.76,16.43-69,30.5-10.68,7.06-20.4,15.2-27.32,26.18-9.64,15.31-9.74,30.78.07,46a75,75,0,0,0,10.91,13.2c16.5,15.77,36.62,25.56,57.55,33.89,25.62,10.21,52.25,16.88,79.23,22.24,6.91,1.38,13.88,2.38,20.58,3.52,3.34-16.3,6.19-32.21,9.92-47.91,7.32-30.84,17.39-60.73,32.85-88.56,9.57-17.22,20.86-33.09,36.52-45.44,24.95-19.66,53.57-19.66,78.53,0,13.53,10.64,23.87,24,32.59,38.65C603.16,134.7,614.75,172,623,210.5,625.31,221.42,627.15,232.45,629.28,243.76ZM432.84,331.28c0,1.34,0,2.3,0,3.27a406.79,406.79,0,0,0,9.94,84c5,22.26,11.94,43.93,23.32,63.89,6.35,11.13,13.75,21.43,24.59,28.69,7.44,5,15.49,7.79,24.68,6.4,11.38-1.72,19.91-8.15,27.29-16.37,11.4-12.7,18.89-27.73,24.84-43.53C582,419.14,587.74,379,589.14,338.11c.07-2.2,0-4.4,0-6.84A872.8,872.8,0,0,1,432.84,331.28Zm5-81.67a850.54,850.54,0,0,0,146.18,0c-.38-2.33-.67-4.15-1-6-4.38-24.93-10.66-49.32-21.51-72.32-6.47-13.72-14.25-26.55-26-36.5-15.42-13-33.74-13.32-48.78.09A95.21,95.21,0,0,0,470,154.34C451.52,183.18,443.79,215.8,437.87,249.61Z"/></g></g></svg>